<?xml version="1.0" encoding="UTF-8"?>
<svg id="Layer_1" data-name="Layer 1" xmlns="http://www.w3.org/2000/svg" viewBox="0 0 500 500">
  <defs>
    <style>
      .cls-1 {
        fill: #161616;
      }
    </style>
  </defs>
  <path class="cls-1" d="m268.85,412.34h-62c-.5,0-.97-.21-1.31-.57l-14.02-15.11-14.02,15.11c-.34.36-.82.57-1.31.57h-21.55c-.62,0-1.19-.37-1.44-.95-.25-.58-.14-1.25.29-1.71l30.8-33.05c.37-.39.89-.62,1.42-.62h0c.54,0,1.06.23,1.43.63l24.49,26.79-1.53,1.4-24.4-26.69-29.94,32.13h20.29l14.03-15.12c.74-.79,2.12-.79,2.85,0l14.03,15.12h60.75l-44.41-47.85-23.4,25.48-1.52-1.4,23.49-25.58c.37-.4.89-.63,1.43-.63h0c.54,0,1.06.23,1.43.62l45.27,48.77c.43.46.54,1.13.29,1.71-.25.57-.82.94-1.44.94Z"/>
  <path class="cls-1" d="m307,234.3l-5.23-8.5v-2.99l-19.54-41.38c-.47-1-1.6-1.54-2.67-1.28-3.31.81-12.09,3.13-22,7.09-11.46,4.58-19.95,10.45-23.07,12.77-.49.36-.8.92-.85,1.52-.05.61.15,1.21.57,1.66l37.34,39.72c.76,2.82-.61,8.66-10.98,20.54-7.53,8.63-7.44,17.46-7.43,17.83l.02,1.01h37.28l-4.5-12.8.03-.93,7.62-17.49h7.97c.98,0,1.91-.39,2.6-1.09.69-.7,1.06-1.63,1.04-2.62l-.19-9.35,1.83-2.08c.4-.46.46-1.11.14-1.63Zm-29.84-13.3c1.33,2.44.64,5.51-1.61,7.13l-8.95,6.46-15.59-16.58c11.51-8.12,24.12-14.33,37.5-18.47l5.19,10.99-17.22,9.21.69,1.25Zm8.38-22.68l-1.66-3.52c.69-.23,1.38-.45,2.07-.67l1.66,3.52c-.69.22-1.38.43-2.07.66Zm-3.63-2.84l1.65,3.5c-1.33.46-2.65.95-3.96,1.45l-1.62-3.5c1.3-.5,2.61-.98,3.93-1.44Zm-5.86,2.2l1.62,3.5c-.42.17-.84.34-1.26.51l-1.69-3.47c.44-.18.88-.37,1.32-.55Zm-3.23,1.35l1.69,3.46c-1.5.64-2.98,1.31-4.45,2l-1.74-3.43c1.49-.71,2.99-1.39,4.51-2.04Zm-6.36,2.94l1.73,3.42c-.45.22-.89.45-1.34.67l-1.93-3.32c.51-.26,1.02-.52,1.54-.77Zm-3.38,1.72l1.93,3.32c-1.3.68-2.59,1.39-3.88,2.12l-2-3.27c1.3-.74,2.61-1.47,3.94-2.17Zm-5.73,3.2l2,3.27c-.39.23-.79.46-1.18.7l-2.23-3.12c.47-.28.94-.56,1.41-.84Zm-3.18,1.93l2.22,3.12c-1.17.73-2.34,1.48-3.49,2.25l-2.31-3.06c1.18-.79,2.38-1.56,3.58-2.31Zm-5.29,3.48l2.3,3.05c-.55.37-1.09.76-1.63,1.14l-2.64-2.81c.65-.47,1.3-.93,1.96-1.38Zm-13.92-9.83l.76-.81c3.05-2.27,11.37-8.02,22.6-12.51,9.78-3.91,18.45-6.2,21.72-7,.13-.03.25.03.31.15l4.69,9.94c-14.14,4.51-27.44,11.2-39.56,19.92l-9.78-10.4-.75.71Zm67.98,34.78l.2,10.16c0,.42-.15.83-.45,1.13-.3.3-.7.47-1.12.47h-9.33l-8.32,19.09-.06,1.71,3.66,10.42h-32.27c.22-2.47,1.32-9.05,6.87-15.42,9.05-10.37,12.86-18.03,11.33-22.75l-.07-.22-5.37-5.72,8.74-6.3c2.92-2.11,3.93-5.97,2.51-9.21l15.31-8.19,5.13,10.86v3.11l5.27,8.57-2.03,2.3Z"/>
  <path class="cls-1" d="m487.9,325.72l-1.36-.9c-2.77-1.83-4.42-4.9-4.42-8.21,0-3.94,2.34-7.49,5.96-9.04,1.41-.61,2.32-1.99,2.32-3.52v-1.55h-33.22v1.55c0,1.54.91,2.92,2.32,3.52,3.62,1.55,5.96,5.1,5.96,9.04,0,3.32-1.65,6.39-4.42,8.21l-1.36.9c-4.99,3.29-7.61,9.24-6.68,15.15l11.13,70.24h19.31l11.13-70.24c.94-5.91-1.69-11.85-6.68-15.15Zm-21.03-5.18h13.85c.18.51.39,1,.63,1.48h-15.11c.24-.48.45-.97.63-1.48Zm-6.55-14.87c-.49-.21-.85-.62-.99-1.11h28.93c-.15.49-.51.9-.99,1.11-4.38,1.88-7.22,6.17-7.22,10.94,0,.63.05,1.25.15,1.86h-12.81c.1-.61.15-1.23.15-1.86,0-4.77-2.83-9.06-7.22-10.94Zm4.58,18.42h17.79c.43.53.91,1.03,1.44,1.49h-20.66c.52-.46,1.01-.95,1.44-1.49Zm-4.35,3.56h26.49c3.73,2.6,5.85,6.95,5.64,11.45h-37.76c-.21-4.5,1.91-8.84,5.64-11.45Zm19.38,67.78l.57-6.22h1.72l-.94,6.22h-1.35Zm-2.08,0h-1.36l.19-6.22h1.74l-.57,6.22Zm-3.43,0h-1.36l-.19-6.22h1.74l-.19,6.22Zm-3.62-6.22l.19,6.22h-1.36l-.57-6.22h1.74Zm-3.81,0l.57,6.22h-1.35l-.94-6.22h1.72Zm-3.82,0l.94,6.22h-.37l-.99-6.22h.42Zm.9,8.29h19.43l-.23,1.48h-18.96l-.23-1.48Zm19.29-2.07l.94-6.22h.51l-.99,6.22h-.47Zm-20.93-8.29l-.23-1.48h23.19l-.23,1.48h-22.72Zm-.56-3.55l-1.89-11.94h27.63l-1.89,11.94h-23.84Zm-2.22-14.01l-.32-2h28.92l-.32,2h-28.28Zm-.64-4.07l-1.84-11.6.95-3.02,3.8,12.11c.19.61.76,1.03,1.4,1.03s1.21-.41,1.4-1.03l3.8-12.11,3.8,12.11c.19.62.75,1.03,1.4,1.03s1.21-.41,1.4-1.03l3.79-12.11,3.79,12.11c.19.61.75,1.03,1.4,1.03h0c.64,0,1.21-.41,1.4-1.03l3.8-12.12,1.07,3.43-1.77,11.2h-29.57Zm31.67-17.08c-.19-.61-.76-1.03-1.4-1.03s-1.21.41-1.4,1.03l-3.8,12.11-3.79-12.11c-.19-.61-.75-1.03-1.4-1.03h0c-.64,0-1.21.41-1.4,1.03l-3.8,12.11-3.8-12.11c-.19-.61-.76-1.03-1.4-1.03s-1.21.41-1.4,1.03l-3.8,12.11-3.8-12.11c-.19-.61-.76-1.03-1.4-1.03s-1.21.41-1.4,1.03l-.28.88-.65-4.08h36l-.71,4.49-.4-1.29Zm-35.21-5.27l-.32-2h37.29l-.32,2h-36.66Zm10.44,65.88l-1.27-7.99h18.31l-1.27,7.99h-15.77Z"/>
  <g>
    <path class="cls-1" d="m361.49,373.62c0-.14-.03-.29-.09-.42-.1-.21-.26-.37-.44-.47-10.54-10.27-24.42-15.93-39.13-15.93s-28.84,5.75-39.42,16.2c0,0-.01.02-.02.03-.08.08-.15.17-.2.28,0,0,0,.02,0,.02,0,0,0,.02-.01.03-.2.51.02,1.09.53,1.32,14.49,6.66,21.52,17.86,27.3,28.92h0s.4.77.4.77c.02.05.05.1.07.14.14.28.29.56.44.86.42.83.88,1.75,1.42,2.62h0s0,.01,0,.01c.17.27.35.54.53.8l.06.1s0,0,0,0c0,0,.01.02.02.03,0,0,.01.01.01.02,1.19,1.77,2.92,3.06,4.96,3.76-.03.1-.04.21-.04.32l2,41.35c.03.55.48.98,1.03.98.02,0,.03,0,.05,0,.24-.01.99-.01,1.23,0,.02,0,.03,0,.05,0,.55,0,1-.43,1.03-.98l2-41.35c0-.08,0-.15-.02-.23,2.2-.68,4.06-2.02,5.3-3.92,0,0,.01-.01.02-.02,0,0,.01-.02.02-.03,0,0,0,0,0,0h0c1.17-1.69,2.06-3.57,2.39-4.3l.33-.74c5.77-11.07,12.74-22.34,27.3-29.1.21-.04.41-.11.57-.28.22-.22.3-.51.29-.79Zm-25.66,21.45c-.87,1.43-1.71,2.88-2.5,4.34-.13-4.09-1.56-8.71-3.32-13.84l6.1-6.82-.28,16.32Zm-14.01,10.04c-2.69,0-5.33.64-7.7,1.85-.5-.81-.94-1.68-1.37-2.53,0,0,0,0,0,0,2.66-1.32,5.77-2.02,9.07-2.02,3.05,0,6.1.74,8.88,2.14-.41.83-.86,1.64-1.31,2.35-2.32-1.18-4.92-1.8-7.57-1.8Zm9.26-2.77s0,.07,0,.1c-2.92-1.37-6.08-2.09-9.25-2.09-3.38,0-6.59.68-9.4,1.96-.85-4.93,1.35-11.26,3.91-18.6,1.97-5.66,4.15-11.91,5.42-18.8,1.28,6.89,3.45,13.14,5.42,18.8,2.56,7.35,4.77,13.69,3.9,18.62Zm-23.82-23.59l6.2,6.92c-1.77,5.15-3.19,9.79-3.29,13.89-.84-1.53-1.71-3.05-2.63-4.56l-.28-16.25Zm-22.34-5.29c9.74-9.12,22.28-14.25,35.6-14.56-.86,8.98-3.67,17.03-6.14,24.14-.05.14-.09.27-.14.41l-9.14-10.2.31,18.47c-4.82-7.09-11.07-13.6-20.49-18.25Zm36.66,73.24l-1.62-33.51c.56.08,1.13.14,1.72.14h.14c.47,0,.93-.03,1.38-.08l-1.62,33.45Zm.24-35.44h-.14c-2.56,0-4.81-.93-6.32-2.6,3.97-1.92,8.87-1.94,12.82-.05-1.51,1.69-3.77,2.64-6.36,2.64Zm16.13-19.49l.32-18.53-9.04,10.1c-.03-.1-.07-.2-.1-.3-2.48-7.11-5.28-15.16-6.14-24.14,13.32.28,25.87,5.38,35.62,14.47-9.54,4.7-15.82,11.27-20.65,18.4Z"/>
    <path class="cls-1" d="m292.4,372.19l9.82,6.65-1.75-11.72-8.06,5.08Zm3.78.06l2.7-1.7.59,3.93-3.29-2.23Z"/>
    <path class="cls-1" d="m313.36,362.68l-9.18,2.55,7.5,9.18,1.68-11.73Zm-3.06,6.78l-2.51-3.08,3.08-.86-.56,3.94Z"/>
    <path class="cls-1" d="m316.24,397.27l1.72-.26s1.97-.29,3.61-.29,3.83.29,3.85.29l1.69.22-5.43-14.81-5.44,14.83Zm5.33-2.61c-.75,0-1.54.05-2.21.11l2.32-6.33,2.33,6.35c-.75-.07-1.65-.13-2.44-.13Z"/>
    <path class="cls-1" d="m342.92,367.11l-1.76,11.72,9.82-6.65-8.06-5.08Zm1.58,3.44l2.7,1.7-3.29,2.23.59-3.93Z"/>
    <path class="cls-1" d="m331.7,374.41l7.5-9.18-9.18-2.55,1.68,11.73Zm3.89-8.04l-2.51,3.08-.56-3.94,3.08.86Z"/>
  </g>
  <g>
    <path class="cls-1" d="m380.32,127.81l4.11,5.12,4.08-5.06-4.12-5.13-4.07,5.08Zm5.54.05l-1.42,1.77-1.46-1.82,1.42-1.77,1.47,1.82Z"/>
    <path class="cls-1" d="m440.27,102.02l-13.6-2.89c-.86-.21-1.75-.25-2.64-.12-2.74-.15-4.45.57-5.14,1.31-.58.62-.59,1.4-.03,2.33-.42.79-.67,1.67-.77,2.64l-.73,8.13v.09c0,1.96-.66,3.53-1.95,4.67-1.74,1.54-4.58,2.18-7.8,1.78-2.88-.36-5.72-2.31-7.16-4.87v-10.7c0-1.55-.86-2.55-2.19-2.55-1.19,0-2,.8-2.16,2.08h-.03c0,2.26-1.51,3.83-3.68,3.83h-16.14c-2.14,0-3.58-1.54-3.58-3.83h-.03c-.16-1.28-.97-2.08-2.16-2.08-1.33,0-2.19,1-2.19,2.55v5.65c-1.5,1.05-3.5,2.09-5.29,3.02-2.02,1.04-3.76,1.94-4.76,2.81-1.95,1.69-4.72,4.29-6.36,7.53-2.12,2.05-6.44,7.93-4.47,20.52.09.58.46,1.08.99,1.33.52.26,1.13.24,1.64-.04l.17-.1.31-.37c.12,1.55.25,2.94.37,4.22.19,2.05.35,3.67.37,5.03.02,1.22-.34,2.37-.69,3.48-.45,1.42-.91,2.89-.48,4.39l4.51,23.06c.12.58.68,2.08,1.91,2.08h6.77c1.43,0,1.52-2.31,1.52-2.33,0-2.6-2.02-5.61-4.7-5.89l-2.18-14.46c-.2-1.07.42-2.38,1.46-3.1,3.25-2.28,7.03-6.79,9.92-11.79l2.82,5.25,4.1-5.98,4.01,5.82,4.03-5.83,4.03,5.82,4.03-5.82,4.12,5.95,2.24-3.97c.05.21.1.42.15.61.15.6.29,1.17.3,1.58l-.65,6.63c-.41.7-.69,1.54-.79,2.4h0c-.13,1.1.03,2.32.43,3.26l-.23,19.92c.01.41.29,1.93,1.45,1.93h6.64c1.15,0,1.73-1.44,1.73-2.25,0-2.33-1.46-4.53-3.39-5.32l.8-14.24c.4-.69.67-1.5.78-2.36.1-.79.03-1.6-.21-2.4l1.29-10.27v-.13c0-3.56,6.69-7.02,9.2-8.32.35-.18.91-.42,1.46-.64.61-.26,1.19-.5,1.61-.71,5.37-2.78,12.05-6.23,12.87-18.87v-6.95c0-.69,1.35-1.64,2.33-1.64h8.45c1.29,0,2.35-.89,2.5-2.11.48-3.73-1.68-7.43-5.12-8.78Zm-41.88,42.79h-28.04v-4.88h28.04v4.88Zm0-17.27l-3.86-4.81-4.08,5.07,4.11,5.12,3.82-4.75v2.08l-3.82,4.98-5.05-6.28-5.07,6.3-5.06-6.3-5.06,6.29-3.97-5.1v-2.12l3.95,4.9,4.08-5.06-4.12-5.13-3.9,4.86v-2.14l3.91-5.02,5.05,6.28,5.06-6.29,5.06,6.29,5.06-6.29,3.9,4.87v2.26Zm-2.4.32l-1.42,1.77-1.46-1.82,1.42-1.77,1.46,1.82Zm-1.97,10h-9.02l4.51-5.61,4.51,5.61Zm-10.14,0h-9.02l4.51-5.61,4.5,5.61Zm-11.06-10.06l1.42-1.77,1.47,1.83-1.42,1.77-1.47-1.82Zm-2.48,5.7l3.39,4.35h-3.39v-4.35Zm24.81,4.35l3.23-4.21v4.21h-3.23Zm3.23-15.89l-3.89-4.86-5.06,6.3-5.06-6.29-5.06,6.29-5.08-6.31-3.88,4.99v-6.08h28.04v5.97Zm-28.04-17.57c0-.32.07-.47.06-.48,0,0,.02,0,.07,0l.03-.02s.09.18.09.5h.02c.21,3.17,2.52,5.43,5.64,5.43h16.14c3.18,0,5.52-2.25,5.73-5.43h.02c0-.32.07-.47.06-.48l.1-.02s.09.18.09.5v9.53h-28.04v-9.53Zm-2.07,42.63c-2.83,5.3-6.77,10.19-10.09,12.51-1.7,1.19-2.65,3.31-2.31,5.14l2.44,16.16h1.38c1.61,0,3.04,2.15,3.04,3.83,0,.06-.02.17-.05.28h-5.89c-.07-.12-.14-.29-.17-.42l-4.52-23.1-.02-.09c-.27-.92.07-1.99.46-3.23.38-1.21.81-2.58.78-4.14-.03-1.44-.19-3.17-.38-5.19-.18-1.94-.39-4.15-.55-6.75l-.16-2.62-2.89,3.51c-1.61-11.4,2.29-16.47,4.07-18.13l.14-.13.08-.17c1.47-2.98,4.1-5.45,5.95-7.05.82-.71,2.54-1.6,4.36-2.54,1.42-.73,2.96-1.53,4.34-2.38v34.51Zm2.07,0v-.15h4.63l-2.64,3.85-1.99-3.7Zm7.13-.15h5.54l-2.77,4.01-2.76-4.01Zm8.04,0h5.56l-2.78,4.01-2.78-4.01Zm10.75,3.89l-2.69-3.89h4.81v.14l-2.11,3.74Zm47.07-40.23c-.03.21-.25.31-.45.31h-8.45c-1.98,0-4.4,1.71-4.4,3.71v6.88c-.73,11.4-6.58,14.43-11.75,17.1-.35.18-.91.42-1.46.64-.61.26-1.19.5-1.61.72-4.77,2.47-10.25,5.84-10.31,10.09l-1.34,10.66.07.22c.2.59.26,1.17.19,1.74-.08.65-.29,1.24-.6,1.72l-.15.23-.93,16.53.91.15c1.35.23,2.57,1.92,2.57,3.53,0,.05-.02.12-.05.19h-5.63l.23-20.23-.11-.22c-.3-.6-.43-1.54-.34-2.33.08-.65.3-1.27.61-1.75l.14-.21.71-7.18v-.1c0-.66-.17-1.37-.35-2.12-.19-.8-.4-1.62-.4-2.41v-29.9c1.86,1.88,4.37,3.2,6.9,3.52,3.8.48,7.24-.35,9.42-2.28,1.72-1.52,2.64-3.65,2.65-6.17l.72-8.08c.09-.88.36-1.65.8-2.3l.43-.63-.48-.6c-.13-.16-.22-.29-.28-.38.43-.24,1.44-.58,3.17-.51l.33.02.11-.02c.66-.11,1.32-.08,1.98.07l13.37,2.83c2.53,1.04,4.11,3.79,3.75,6.56Z"/>
  </g>
  <g>
    <path class="cls-1" d="m421.69,315.96l-12.18-36c-.55-1.81-1.76-3.32-3.4-4.24l-1.74-.99,6.6-15.18c.67-1.53.56-3.31-.3-4.74l-14.79-24.99-14.74-2.16v-.05s-.17.02-.17.02l-.16-.02v.05s-14.75,2.16-14.75,2.16l-14.77,24.95c-.87,1.47-.97,3.27-.26,4.82l6.78,14.89-2.17,1.24c-1.63.92-2.84,2.43-3.4,4.21l-12.15,36.03c-.29.85-.14,1.79.38,2.51.52.73,1.37,1.16,2.26,1.16h6.01l-.66,3.14c-.18.83.03,1.68.57,2.34.53.66,1.33,1.04,2.17,1.04h19.23c.85,0,1.64-.38,2.17-1.04.53-.66.74-1.51.57-2.34l-.66-3.14h18.54l-.66,3.14c-.17.83.03,1.68.57,2.34.53.66,1.33,1.04,2.17,1.04h19.24c.85,0,1.64-.38,2.17-1.04s.74-1.51.57-2.34l-.66-3.14h4.97c.89,0,1.74-.43,2.26-1.16.52-.73.66-1.67.37-2.51Zm-12.78-60.1c.3.51.45,1.09.43,1.67h-8.22c-.57,0-1.03.46-1.03,1.03s.46,1.03,1.03,1.03h7.58l-6.13,14.1-8.09-4.6-3.41-6.13,3.71-10.2c.62-1.72.94-3.52.94-5.35v-13.83l13.18,22.27Zm-36.25,5.96l-3.84-9.6c-.64-1.61-.97-3.31-.97-5.04v-15.53l9.13-1.34,1.36,9.99h5.44l1.58-9.93,8.3,1.22v15.84c0,1.59-.27,3.15-.82,4.64l-3.55,9.76h-16.63Zm6.36-31.81l1.97-.29,2.33.34-1.3,8.17h-1.87l-1.12-8.22Zm-25.7,29.59h7.06c.57,0,1.03-.46,1.03-1.03s-.46-1.03-1.03-1.03h-7.73c-.02-.59.12-1.19.43-1.71l12.69-21.44v12.8c0,2,.38,3.95,1.12,5.81l3.81,9.53-3.45,6.59-7.63,4.35-6.31-13.86Zm17.32,64.22c-.08.1-.27.27-.57.27h-3.3v-3.34c0-.57-.46-1.03-1.03-1.03s-1.03.46-1.03,1.03v3.34h-3.29v-3.34c0-.57-.46-1.03-1.03-1.03s-1.03.46-1.03,1.03v3.34h-3.29v-3.34c0-.57-.46-1.03-1.03-1.03s-1.03.46-1.03,1.03v3.34h-3.15c-.3,0-.49-.17-.57-.27-.08-.1-.21-.32-.15-.61l1.04-4.93c.39-1.85,2.04-3.18,3.93-3.18h10.74c1.89,0,3.54,1.34,3.93,3.18l1.04,4.93c.06.3-.07.51-.15.61Zm11.18-6.25h-5.56l1.93-18.84h4.22l1.93,18.84h-2.53Zm30.75,6.25c-.08.1-.27.27-.57.27h-3.42v-3.34c0-.57-.46-1.03-1.03-1.03s-1.03.46-1.03,1.03v3.34h-3.29v-3.34c0-.57-.46-1.03-1.03-1.03s-1.03.46-1.03,1.03v3.34h-3.29v-3.34c0-.57-.46-1.03-1.03-1.03s-1.03.46-1.03,1.03v3.34h-3.03c-.3,0-.49-.17-.57-.27-.08-.1-.21-.32-.15-.61l1.04-4.93c.39-1.85,2.04-3.18,3.93-3.18h10.74c1.89,0,3.54,1.34,3.93,3.18l1.04,4.93c.06.3-.07.51-.15.61Zm7.06-6.55c-.14.19-.35.3-.58.3h-5.42c-.69-2.65-3.12-4.54-5.88-4.54h-10.74c-2.76,0-5.18,1.9-5.88,4.54h-4.71l-2.14-20.91h-7.96l-2.14,20.91h-2.49c-.69-2.65-3.12-4.54-5.88-4.54h-10.74c-2.76,0-5.18,1.9-5.88,4.54h-6.46c-.23,0-.44-.11-.58-.3-.14-.19-.17-.43-.1-.65l4.05-12h21.77c.57,0,1.03-.46,1.03-1.03s-.46-1.03-1.03-1.03h-21.07l1.11-3.29h15.68c.57,0,1.03-.46,1.03-1.03s-.46-1.03-1.03-1.03h-14.98l5.61-16.63c.41-1.31,1.28-2.39,2.45-3.06l12.13-6.92,3.51-6.71h16.9l3.74,6.72,12.14,6.91c1.18.66,2.04,1.75,2.45,3.08l5.62,16.6h-15.26c-.57,0-1.03.46-1.03,1.03s.46,1.03,1.03,1.03h15.96l1.11,3.29h-21.36c-.57,0-1.03.46-1.03,1.03s.46,1.03,1.03,1.03h22.06l4.06,12c.07.22.04.46-.1.65Z"/>
    <path class="cls-1" d="m376.46,244.66h-4.29c-.57,0-1.03.46-1.03,1.03s.46,1.03,1.03,1.03h4.29c.57,0,1.03-.46,1.03-1.03s-.46-1.03-1.03-1.03Z"/>
    <path class="cls-1" d="m385.04,246.73h4.29c.57,0,1.03-.46,1.03-1.03s-.46-1.03-1.03-1.03h-4.29c-.57,0-1.03.46-1.03,1.03s.46,1.03,1.03,1.03Z"/>
  </g>
  <g>
    <path class="cls-1" d="m387.83,61.1h-7.73c-.77,0-1.43-.55-1.58-1.3-.23-1.19-2.06-11.98-2.9-16.99l-.68-4.07,3.66,4.76,2.65-3.44,2.65,3.44,2.65-3.44,2.65,3.44,3.82-4.97-.68,4.07c-.95,5.71-2.68,15.89-2.93,17.2-.15.75-.81,1.3-1.58,1.3Zm-7.28-1.69s0,0,0,0c0,0,0,0,0,0Zm-.07-.37h6.97c.31-1.75,1.32-7.65,2.16-12.69l-.42.54-2.65-3.44-2.65,3.44-2.65-3.44-2.65,3.44-.26-.34c.81,4.81,1.82,10.77,2.13,12.48Z"/>
    <polygon class="cls-1" points="389.19 39.4 386.54 35.97 383.9 39.4 381.25 35.97 378.6 39.4 375.14 34.9 376.08 32.73 378.6 36.01 381.25 32.58 383.9 36.01 386.54 32.58 389.19 36.01 391.61 32.87 392.66 34.9 389.19 39.4"/>
    <path class="cls-1" d="m372.68,9.92c.27,5.22.88,11.4,1.82,18.37l.33,2.45,1.12-1.46,2.65,3.44,2.65-3.44,2.65,3.44,2.65-3.44,2.65,3.44,2.65-3.44,1.27,1.65.34-2.44c.85-6.11,1.49-12.71,1.79-18.58h0c.22-4.18-.2-7.42-.89-9.92h-2.17c.73,2.34,1.21,5.54.99,9.82-.27,5.14-.79,10.85-1.49,16.29l-2.49,3.23-2.65-3.44-2.65,3.44-2.65-3.44-2.65,3.44-2.27-2.94c-.81-6.25-1.34-11.82-1.59-16.58-.22-4.28.26-7.47.99-9.82h-2.17c-.69,2.5-1.1,5.75-.88,9.92Z"/>
  </g>
  <path class="cls-1" d="m313.94,39.98l-7.25-6.58c-1.28-1.16-2.93-1.8-4.66-1.8h-.64c-.05-.08-.12-.16-.2-.23l-7.5-6.24c-.44-.37-1.04-.45-1.56-.2-.52.24-.84.75-.84,1.33v7.39c-.19.33-.34.67-.43,1.05l-4.14,17.09s-.01.05-.02.07l-.81,3.33c-.79,3.28-2.77,6.14-5.55,8.04l-11.97,8.19c-4.91,3.36-8.13,8.67-8.84,14.57l-3.24,26.96-.42,1.78c-4.92-1.34-6.97-4.55-7.01-10.91-.03-4.55,1.75-9.75,3.33-14.38l.03-.08c.56-1.64,1.09-3.19,1.54-4.71,3.69-12.27-.37-18.26-2.29-20.27-2.02-2.13-4.62-3.07-6.93-2.5-1.85.45-3.29,1.84-3.83,3.73-.56,1.96.58,4.01,2.55,4.57,1.06.3,2.17.11,3.05-.48.09.11.18.24.27.38.61.95,2.43,4.64.1,12.42-.47,1.53-1.02,3.14-1.5,4.55-1.76,5.14-3.76,10.97-3.72,16.79.07,10.16,4.72,16.33,13.82,18.32.26.06.49.06.72.06.02,0,.04,0,.06,0,.73.71,1.69,1.11,2.73,1.11h30.9c.57,0,1.03-.46,1.03-1.03v-.52c0-3.25-2.65-5.9-5.9-5.9h-5.16l2.78-12.11c.06-.26.1-.52.14-.78,0,0,0-.01.01-.02.04-.08,3.3-7.06,7.59-11.04l4.46,30.38c.07.51.51.88,1.02.88h7.3c.57,0,1.03-.46,1.03-1.03v-1.4c0-2.65-1.58-5.03-4.02-6.06l-.24-.1v-31.39l3.97-5.33c2.24-3.01,3.45-6.66,3.48-10.39,0,0,0,0,0,0,.01-.1,0-.2,0-.3,0-.29,0-.57-.01-.86l-.18-3.04s0-.03,0-.05l-.98-16.62h5.56c1.27,0,2.39-.86,2.71-2.09l.47-1.79c.26-1.01-.05-2.08-.83-2.78Zm-15.71-8.38h-3.43c-.51,0-1,.1-1.45.27v-4.33l4.88,4.06Zm-10.97,26.09l1.62.27,1.8,2.4c.19.25.48.4.8.41l3,.08,2.11,2.14c.22.23.54.33.85.3l2.98-.33,2.38,1.82c.18.14.4.21.63.21.08,0,.17-.01.25-.03l1.35-.34.09,1.53c-6.54-1.06-12.88-3.5-18.45-7.11.22-.44.43-.9.61-1.36Zm17.63,4.85l-1.25.31-2.31-1.77c-.21-.16-.48-.24-.74-.21l-2.89.32-2.05-2.08c-.19-.19-.44-.3-.71-.31l-2.91-.08-1.75-2.33c-.16-.21-.39-.36-.66-.4l-1.72-.29s0,0,0-.01l.46-1.88c4.92,3.42,10.55,5.79,16.42,6.91l.11,1.82Zm-61.36,41.33c-.03-5.46,1.9-11.12,3.62-16.13.48-1.4,1.04-3.04,1.52-4.6,2.51-8.41.59-12.69-.34-14.14-.41-.65-.88-1.16-1.4-1.52-.45-.31-1.05-.22-1.39.2-.41.51-1.08.71-1.7.54-.42-.12-.77-.4-.98-.78-.21-.38-.26-.82-.14-1.24.33-1.16,1.21-2.01,2.33-2.29,1.59-.39,3.43.33,4.94,1.92,1.67,1.75,5.18,7.02,1.8,18.25-.45,1.48-.97,3.02-1.52,4.64l-.04.12c-1.62,4.74-3.46,10.11-3.43,15.01.04,7.32,2.71,11.33,8.61,12.91l-.42,1.78c-.11.47-.13.96-.07,1.42-7.59-1.96-11.32-7.23-11.38-16.1Zm58.53-27.19l-4.18,5.6c-.13.18-.21.4-.21.62v32.42c0,.42.25.79.63.95l.87.37c1.68.71,2.76,2.34,2.76,4.16v.36h-5.37l-6.34-43.18,1.23-6.37c.11-.56-.26-1.1-.82-1.21-.56-.11-1.1.26-1.21.82l-1.26,6.54c-.02.11-.02.23,0,.35l1.68,11.44c-3.06,2.42-5.65,6.31-7.28,9.12-.19-1.06-.52-2.1-.98-3.09l-.06-.14c-2.17-4.64-6.87-7.64-11.97-7.64h-.89c-.57,0-1.03.46-1.03,1.03s.46,1.03,1.03,1.03h.89c4.31,0,8.27,2.53,10.1,6.45l.06.14c1,2.14,1.26,4.58.73,6.88l-3.07,13.37c-.07.31,0,.63.2.88.2.25.49.39.81.39h6.45c1.94,0,3.55,1.45,3.8,3.32h-29.83c-.5,0-.96-.21-1.3-.55-.07-.17-.18-.31-.31-.42-.22-.4-.29-.86-.18-1.3l1.33-5.63s.02-.08.02-.11l3.25-27.02c.64-5.31,3.54-10.09,7.95-13.12l11.97-8.19c1.63-1.11,3.01-2.51,4.1-4.11,5.89,3.8,12.59,6.34,19.5,7.41-.17,3.03-1.22,5.97-3.05,8.42Zm10.7-34.44l-.47,1.79c-.08.32-.38.55-.71.55h-9.44c-.57,0-1.03.46-1.03,1.03s.46,1.03,1.03,1.03h1.81l.7,11.94c-5.67-1.16-11.08-3.53-15.77-6.93l3.98-16.45c.22-.9,1.01-1.52,1.94-1.52h7.23c1.21,0,2.37.45,3.27,1.26l7.25,6.58c.2.18.29.46.22.73Z"/>
  <path class="cls-1" d="m129.11,96.27l-1.27-3.43c-.76-2.07-2.76-3.47-4.97-3.47h-17.68l-1.63-6.32c-.72-2.77-2.1-5.37-4-7.51l-3.64-4.09c-.82-.93-1.28-2.13-1.28-3.35l.04-4.01h2.94c.94,0,1.81-.42,2.38-1.16.58-.74.78-1.68.56-2.59l-3.28-13.52c-.61-2.44-2.79-4.15-5.31-4.15h-11.31c-3.1,0-5.92,1.57-7.54,4.18l-5.8,8.9c-.98,1.59-1.5,2.98-1.19,5.46l1.57,9.47H25.21c-4.24,0-8.11,2.66-9.62,6.62l-6.17,16.14c-.5,1.37-.29,2.89.54,4.08.84,1.2,2.21,1.91,3.67,1.91h25.28s0,0,0,0c0,0,0,0,0,0h4.28s0,0,0,0c0,0,0,0,0,0h34.96s0,0,0,0c0,0,0,0,0,0h48.74c.77,0,1.49-.38,1.94-1.01.44-.63.54-1.44.28-2.17Zm-1.97.98s-.11.12-.24.12h-47.91l-1.64-7.33c-.12-.56-.68-.91-1.23-.78-.56.12-.91.68-.78,1.23l1.54,6.88h-32.97l-1.77-4.54c-.76-2.07-2.76-3.47-4.97-3.47h-18.92c-.57,0-1.03.46-1.03,1.03s.46,1.03,1.03,1.03h18.92c1.35,0,2.56.85,3.04,2.13l1.48,3.81h-2.03l-1.26-3.62c-.19-.54-.78-.83-1.32-.64-.54.19-.82.78-.64,1.32l1.02,2.94H13.63c-.8,0-1.52-.37-1.98-1.03-.45-.65-.56-1.44-.3-2.17l6.17-16.12c1.21-3.17,4.3-5.29,7.69-5.29h57.73c.57,0,1.03-.46,1.03-1.03v-23.35c0-.57-.46-1.03-1.03-1.03s-1.03.46-1.03,1.03v22.31h-12.08l-.43-2.6h2.21c.57,0,1.03-.46,1.03-1.03s-.46-1.03-1.03-1.03h-2.55l-.32-1.94h5.54c.57,0,1.03-.46,1.03-1.03s-.46-1.03-1.03-1.03h-5.88l-.18-1.09c-.23-1.88.09-2.78.89-4.06l5.8-8.91c1.25-2.02,3.41-3.22,5.79-3.22h11.31c1.56,0,2.92,1.06,3.3,2.57l3.28,13.51c.07.29,0,.59-.18.82-.18.23-.46.37-.76.37h-7.35c-.57,0-1.03.46-1.03,1.03s.46,1.03,1.03,1.03h2.35l-.04,4c0,1.74.64,3.41,1.8,4.73l3.64,4.1c1.68,1.9,2.91,4.2,3.55,6.66l1.83,7.1c.12.46.53.78,1,.78h18.48c1.35,0,2.57.85,3.03,2.11l1.27,3.43c.05.12,0,.22-.03.27Z"/>
  <path class="cls-1" d="m124.06,6.28s.02.02.02.04c0,.01.02.03.03.04.17.27.36.52.59.74l2.18,2.1-3.42,2.39c-.41.28-.55.81-.35,1.27l14,31.62c2.79,6.6,9.22,10.86,16.39,10.86h17.59c7.16,0,13.59-4.26,16.38-10.84l14.01-31.64c.21-.47.04-1.02-.39-1.29l-3.53-2.22,2.33-2.24c1.14-1.09,1.48-2.74.88-4.19L199.57,0h-17.76l-.07.85c-.02.29.07.57.27.79.2.21.47.33.76.33h15.37l.71,1.73c.14.34.17.69.09,1.03h-17.56c-.57,0-1.03.46-1.03,1.03v3.45c0,.57.46,1.03,1.03,1.03h12.24l-2.87,2.76h-10.06c-.57,0-1.03.46-1.03,1.03v3.45c0,.57.46,1.03,1.03,1.03h4.44c-.71.84-1.31,1.77-1.79,2.76h-2.65c-.57,0-1.03.46-1.03,1.03v3.45c0,.57.46,1.03,1.03,1.03h.81l-2.68,9.12c-.5,1.7-1.91,2.96-3.6,3.34V6.6L176.4,0h-2.1l-1.04,5.9-5.72,3.96h-9.65l-5.66-3.96L151.16,0h-2.1l1.2,6.6v32.75c-2.07-.06-3.91-1.46-4.5-3.46l-2.68-9.12h.8c.57,0,1.03-.46,1.03-1.03v-3.45c0-.57-.46-1.03-1.03-1.03h-2.65c-.49-.99-1.07-1.92-1.78-2.76h4.43c.57,0,1.03-.46,1.03-1.03v-3.45c0-.57-.46-1.03-1.03-1.03h-10.05l-2.87-2.76h12.23c.57,0,1.03-.46,1.03-1.03v-3.45c0-.57-.46-1.03-1.03-1.03h-17.53c-.08-.34-.06-.7.08-1.03l.71-1.73h15.36c.29,0,.57-.12.76-.33.2-.21.29-.5.27-.79L142.77,0h-17.74l-1.2,2.91c-.46,1.1-.37,2.37.24,3.37Zm58.37,1.89v-1.38h14.8l-1.44,1.38h-13.36Zm-.69,8.27v-1.38h6.87l-1.44,1.38h-5.44Zm0,6.89h.8s-.02.05-.03.08l-.38,1.3h-.39v-1.38Zm-15.1-11.4l-3.18,18.52h-1.37l-3.29-18.52h7.84Zm-23.8,11.4v1.38h-.38l-.38-1.3s-.02-.05-.02-.08h.79Zm0-8.27v1.38h-5.43l-1.43-1.38h6.86Zm-10.18-.32s.02.02.03.03l4.32,4.15c1.12,1.08,2,2.35,2.62,3.78.17.39.32.81.46,1.28l3.67,12.48c.86,2.92,3.58,4.95,6.62,4.95h.9c.21,0,.41-.07.58-.18.28-.19.46-.5.46-.86V8.49l4.3,3.01,3.58,20.17c.09.49.52.85,1.02.85h3.11c.5,0,.93-.36,1.02-.86l3.46-20.16,4.36-3.02v31.92c0,.57.46,1.03,1.03,1.03,3.04,0,5.76-2.04,6.62-4.95l3.67-12.48c.57-1.93,1.63-3.68,3.08-5.07l8.45-8.12,3.2,2.02-13.66,30.84c-2.47,5.83-8.15,9.6-14.48,9.6h-17.59c-6.33,0-12.01-3.77-14.49-9.61l-13.67-30.86,3.06-2.14,4.26,4.09Zm9.49-7.96v1.38h-13.35l-1.43-1.38h14.78Z"/>
  <g>
    <path class="cls-1" d="m390.21,492.82c-.5-.43-1.15-.66-1.81-.66h-8.88c-.66,0-1.31.24-1.81.66-1.07.89-3,3-4.15,7.18h2.17c1.06-3.41,2.63-5.03,3.32-5.6.13-.11.3-.17.47-.17h8.88c.18,0,.35.06.48.17.68.57,2.25,2.19,3.31,5.6h2.17c-1.15-4.18-3.08-6.29-4.14-7.18Z"/>
    <path class="cls-1" d="m437.12,491.8h-4.33c-.39,0-.78-.16-1.06-.44l-1.92-1.92h-.73l.21.21c.36.36.47.9.27,1.37-.2.47-.65.78-1.17.78h-2c-.39,0-.78-.16-1.06-.44l-1.92-1.92h-.73l.21.21c.36.36.47.9.27,1.37-.2.47-.65.78-1.17.78h-2c-.39,0-.78-.16-1.06-.44l-1.92-1.92h-.73l.21.21c.36.36.47.9.27,1.37-.2.47-.65.78-1.17.78h-24.11c-.63,0-1.19-.38-1.43-.96-.24-.58-.11-1.25.34-1.69l11.54-11.54c.75-.75,1.74-1.16,2.79-1.16h19.16c1.06,0,2.05.41,2.79,1.16l11.54,11.54c.45.45.58,1.11.34,1.69-.24.58-.8.96-1.43.96Zm-4.09-2.07h2.85l-10.66-10.66c-.36-.36-.83-.55-1.33-.55h-19.16c-.5,0-.98.2-1.33.55l-10.66,10.66h20.92l-.21-.21c-.36-.36-.47-.9-.27-1.38.2-.47.65-.78,1.17-.78h2.9c.4,0,.8.16,1.08.45l1.22,1.22c-.1-.28-.09-.6.03-.89.2-.47.65-.78,1.17-.78h2.9c.4,0,.8.16,1.08.45l1.22,1.22c-.1-.28-.09-.6.03-.89.2-.47.65-.78,1.17-.78h2.9c.4,0,.8.16,1.08.45l1.91,1.91Z"/>
    <path class="cls-1" d="m386.05,491.8c-.2,0-.4-.04-.6-.12-.58-.24-.96-.8-.96-1.43v-16.32c0-1.06.41-2.05,1.16-2.79l13.55-13.55c.75-.75,1.74-1.16,2.79-1.16h16.33c.63,0,1.19.38,1.43.96.24.58.11,1.25-.34,1.69l-3.06,3.06c-.28.28-.66.44-1.06.44h-2.72l-.52.52h.29c.51,0,.97.31,1.17.78.2.47.09,1.01-.27,1.37l-1.41,1.41c-.28.28-.66.44-1.06.44h-2.72l-.52.52h.29c.51,0,.97.31,1.17.78.2.47.09,1.01-.27,1.38l-1.41,1.41c-.28.28-.66.44-1.06.44h-2.72l-.52.52h.29c.51,0,.97.31,1.17.78.2.47.09,1.01-.27,1.38l-17.05,17.05c-.3.3-.69.46-1.1.46Zm15.95-33.31c-.5,0-.98.2-1.33.55l-13.55,13.55c-.36.36-.55.83-.55,1.33v15.08s14.79-14.79,14.79-14.79h-.29c-.51,0-.97-.31-1.17-.78-.2-.47-.09-1.01.27-1.37l2.05-2.05c.29-.29.67-.45,1.08-.45h1.73c-.27-.13-.49-.36-.61-.65-.2-.47-.09-1.01.27-1.37l2.05-2.05c.29-.29.67-.45,1.08-.45h1.73c-.27-.13-.49-.36-.61-.65-.2-.47-.09-1.01.27-1.37l2.05-2.05c.28-.29.68-.45,1.08-.45h2.7l2.01-2.01h-15.08Zm3.85,11.23s0,0,0,0h0Z"/>
    <path class="cls-1" d="m376.82,491.8h-24.11c-.51,0-.97-.31-1.17-.78-.2-.47-.09-1.01.27-1.38l.21-.21h-.73l-1.92,1.92c-.28.28-.66.44-1.06.44h-2c-.51,0-.97-.31-1.17-.78-.2-.47-.09-1.01.27-1.37l.21-.21h-.73l-1.92,1.92c-.28.28-.66.44-1.06.44h-2c-.51,0-.97-.31-1.17-.78-.2-.47-.09-1.01.27-1.37l.21-.21h-.73l-1.92,1.92c-.28.28-.66.44-1.06.44h-4.33c-.63,0-1.19-.38-1.43-.96-.24-.58-.11-1.25.34-1.69l11.54-11.54c.75-.75,1.74-1.16,2.79-1.16h19.16c1.06,0,2.05.41,2.79,1.16l11.54,11.54c.45.45.58,1.11.34,1.69-.24.58-.8.96-1.43.96Zm-22.17-2.07h20.92l-10.66-10.66c-.36-.36-.83-.55-1.33-.55h-19.16c-.5,0-.98.2-1.33.55l-10.66,10.66h2.85l1.91-1.91c.28-.29.68-.45,1.08-.45h2.9c.51,0,.97.31,1.17.78.12.29.13.61.03.89l1.22-1.22c.29-.29.67-.45,1.08-.45h2.9c.51,0,.97.31,1.17.78.12.29.13.61.03.89l1.22-1.22c.29-.29.67-.45,1.08-.45h2.9c.51,0,.97.31,1.17.78.2.47.09,1.01-.27,1.38l-.21.21Z"/>
    <path class="cls-1" d="m382.25,491.8c-.4,0-.8-.16-1.1-.45l-17.05-17.05c-.36-.36-.47-.9-.27-1.38.2-.47.65-.78,1.17-.78h.29l-.52-.52h-2.72c-.4,0-.78-.16-1.06-.44l-1.41-1.41c-.36-.36-.47-.9-.27-1.37.2-.47.65-.78,1.17-.78h.29l-.52-.52h-2.72c-.4,0-.78-.16-1.06-.44l-1.41-1.41c-.36-.36-.47-.9-.27-1.37.2-.47.65-.78,1.17-.78h.29l-.52-.52h-2.72c-.4,0-.78-.16-1.06-.44l-3.06-3.06c-.45-.45-.58-1.11-.34-1.69.24-.58.8-.96,1.43-.96h16.33c1.06,0,2.05.41,2.79,1.16l13.55,13.55c.75.75,1.16,1.74,1.16,2.79v16.32c0,.63-.38,1.19-.96,1.43-.19.08-.4.12-.6.12Zm-15.31-17.59l14.79,14.79v-15.08c0-.5-.19-.98-.55-1.33l-13.55-13.55c-.36-.36-.83-.55-1.33-.55h-15.08l2.01,2.01h2.7c.4,0,.8.16,1.08.45l2.05,2.05c.36.36.47.9.27,1.37-.12.29-.34.52-.61.65h1.73c.41,0,.79.16,1.08.45l2.05,2.05c.36.36.47.9.27,1.37-.12.29-.34.52-.61.65h1.73c.41,0,.79.16,1.08.45l2.05,2.05c.36.36.47.9.27,1.37-.2.47-.65.78-1.17.78h-.29Z"/>
    <path class="cls-1" d="m384.19,470.98c-.24,0-.47-.05-.7-.15l-.17-.08-5.9-5.91c-.36-.36-.47-.9-.27-1.38.2-.47.65-.78,1.17-.78h.29l-.52-.52h-2.72c-.4,0-.77-.16-1.06-.44l-1.42-1.42c-.36-.36-.47-.9-.27-1.37.2-.47.65-.78,1.17-.78h.29l-.52-.52h-2.72c-.39,0-.78-.16-1.06-.44l-3.64-3.64-.08-.17c-.24-.52-.19-1.11.12-1.59.31-.48.83-.76,1.4-.76h33.19c.61,0,1.17.34,1.46.87.29.54.27,1.19-.06,1.7l-.14.17-3.42,3.42c-.28.28-.66.44-1.06.44h-2.72l-.52.52h.29c.51,0,.97.31,1.17.78.2.47.09,1.01-.27,1.37l-1.41,1.41c-.28.28-.67.44-1.06.44h-2.72l-.52.52h.29c.51,0,.97.31,1.16.78.2.47.09,1.01-.27,1.38l-5.91,5.87c-.27.17-.58.26-.89.26Zm-3.93-6.22l3.95,3.95,3.95-3.95h-.29c-.51,0-.97-.31-1.17-.78-.2-.47-.09-1.01.27-1.37l2.05-2.05c.29-.29.67-.45,1.08-.45h1.73c-.27-.13-.49-.36-.61-.65-.2-.47-.09-1.01.27-1.38l2.05-2.05c.29-.29.67-.45,1.08-.45h2.7l2.46-2.46h-31.18s2.46,2.46,2.46,2.46h2.7c.41,0,.79.16,1.08.45l2.05,2.05c.36.36.47.9.27,1.38-.12.29-.34.52-.61.65h1.73c.41,0,.79.16,1.08.45l2.05,2.05c.36.36.47.9.27,1.37-.2.47-.65.78-1.16.78h-.29Zm-2.33-2.74s0,0,0,0h0Zm17.08-4.53h0s0,0,0,0Z"/>
  </g>
  <path class="cls-1" d="m181.98,463.54h-1.13l-.53-.42c-10.45-8.4-25.61-8.4-36.06,0l-.53.43h-1.12c-1.54,0-2.92.92-3.51,2.35l-14.08,34.11h17.74l-.22-2.6c-.05-.54-.49-.95-1.03-.95h-12.79l1.14-2.76h9.88c.28,0,.55-.12.75-.32.19-.2.3-.48.29-.76l-.14-3.45c-.02-.55-.48-.99-1.03-.99h-7.46l1.14-2.76h6.47c.28,0,.55-.12.75-.32.2-.2.3-.48.28-.76l-.17-3.45c-.03-.55-.48-.98-1.03-.98h-4.02l5.46-13.23c.27-.65.9-1.07,1.6-1.07h.6l2.54,16.19s0,0,0,0c0,0,0,.01,0,.02l.88,4.88h-.38c-.97,0-1.88.47-2.43,1.27-.56.8-.69,1.81-.35,2.72l2.27,6.17c.08.23.25.42.47.55l2.62,1.46s.01,0,.02,0l.2,1.11h2.1l-3.14-17.33h29.35l-3.06,17.33h2.1l.19-1.07c.06-.02.12-.04.18-.08l2.34-1.46c.19-.12.34-.3.42-.52l2.27-6.17c.34-.91.2-1.93-.35-2.72-.56-.8-1.47-1.27-2.44-1.27h-.27l.86-4.88s0-.03,0-.04c0,0,0-.02,0-.02l1.79-16.15h.57c.7,0,1.33.42,1.6,1.07l5.46,13.23h-4.03c-.55,0-1,.43-1.03.98l-.17,3.45c-.01.28.09.56.28.76.2.21.47.32.75.32h6.48l1.14,2.76h-7.47c-.55,0-1.01.44-1.03.99l-.14,3.45c-.01.28.09.56.29.76.2.2.46.32.75.32h9.89l1.14,2.76h-12.81c-.54,0-.99.41-1.03.95l-.22,2.6h17.76l-14.08-34.11c-.59-1.43-1.97-2.35-3.51-2.35Zm-41.41,34.98l.12,1.38h-13.38l.57-1.38h12.7Zm-1.96-8.27l.06,1.38h-7.95l.57-1.38h7.32Zm-.02-8.27l.07,1.38h-4.52l.57-1.38h3.89Zm33.05-21.43c.43.16.86.33,1.29.51l-.96,8h-1.36l1.03-8.51Zm-9.58-1.66c.46,0,.92,0,1.38.02v10.11l-1.38.02v-10.16Zm-8.14,1.33l1.07,8.85h-1.36l-1-8.39c.43-.16.86-.31,1.29-.46Zm-5.54,36.04l-.82-.46-2.14-5.82c-.1-.28-.06-.58.11-.83.17-.24.44-.39.74-.39h.76l1.36,7.49Zm30.65-7.49c.3,0,.57.14.74.39.17.25.21.55.11.83l-2.15,5.84-.65.41,1.32-7.46h.64Zm-1.36-8.16h-30.01l-2.44-15.6.35-.28c1.59-1.28,3.3-2.34,5.09-3.2l1.04,8.69c.06.52.5.91,1.03.91h3.45c.3,0,.58-.13.77-.35.2-.22.29-.52.25-.81l-1.25-10.33c1.34-.32,2.69-.55,4.06-.66v11.11c0,.28.11.54.31.74.19.19.45.3.72.3h.02l3.45-.06c.56-.01,1.02-.47,1.02-1.03v-10.96c1.39.17,2.77.44,4.13.82l-1.22,10.07c-.04.29.06.59.25.81.2.22.48.35.77.35h3.45c.52,0,.96-.39,1.03-.91l.98-8.21c1.45.77,2.83,1.67,4.14,2.72l.37.3-1.73,15.58Zm19.62,19.29h-13.4l.12-1.38h12.71l.57,1.38Zm-3.41-8.27h-7.96l.06-1.38h7.33l.57,1.38Zm-3.41-8.27h-4.54l.07-1.38h3.9l.57,1.38Z"/>
  <path class="cls-1" d="m204.53,176.25c-1.21-.25-2.56-.61-3.7-.99-1.51-.51-2.81-1.1-3.46-1.41-.87-.41-1.45-.76-1.46-.76l-2.25-1.32,1.08,2.37s.28.6.63,1.54c.41,1.06.8,2.35,1.09,3.56.29,1.18.52,2.55.65,3.76.11,1.04.15,1.77.15,1.77l.07,1.42,2.68-1.72c.79-.56,1.95-1.43,3.03-2.42,1.01-.93,1.99-1.95,2.67-2.8.71-.81,1.11-1.41,1.13-1.44l.73-1.1-1.31-.17s-.72-.1-1.72-.29Zm-.08,1.95c-.65.81-1.57,1.77-2.53,2.65-1.01.93-2.12,1.76-2.84,2.27l-.29.19c-.01-.15-.03-.31-.05-.47-.13-1.28-.38-2.73-.68-3.97-.27-1.13-.61-2.3-.98-3.33.75.35,1.91.85,3.23,1.29,1.2.4,2.62.78,3.9,1.05.16.03.31.06.45.09-.07.08-.14.16-.21.25Zm-3.38-10.48l1.41,1.03c.45.35.9.79,1.38,1.25l.06.06c1.96,1.89,3.57,4.25,3.59,4.27l.77,1.14.64-1.22s.34-.64.78-1.63l.66-1.66c.08-.19.16-.44.23-.69l.41-1.55c.38-1.56.59-2.93.68-3.61.14-1,.18-1.7.19-1.73l.09-1.37-1.25.56s-.66.29-1.63.65c-1.11.41-2.45.81-3.67,1.11-2.64.66-5.33.93-5.35.93l-2.37.23,2.01,1.28s.57.37,1.38.94Zm4.73-1.78c1.27-.31,2.67-.73,3.84-1.16.16-.06.31-.11.45-.17-.01.09-.02.19-.04.29-.09.65-.29,1.95-.65,3.43l-.4,1.48c-.06.18-.11.39-.17.53l-.65,1.65c-.05.1-.09.2-.14.3-.69-.91-1.76-2.22-2.98-3.4l-.06-.06c-.49-.48-.99-.97-1.54-1.39l-1.11-.81c.99-.15,2.21-.38,3.44-.69Zm-27.38-6.52c-2.57,0-5.09.88-7.09,2.48l-3.58,2.86c0-1.34-.07-2.76-.26-4.18l3.98-1.66c1.11-.45,1.76-1.6,1.59-2.78l-2.06-13.99c-.16-1.07-.94-1.92-1.99-2.16l-3.43-.78c-.44-.1-.88.18-.98.62-.1.44.18.88.62.98l3.43.78c.39.09.67.4.73.79l2.06,13.99c.06.44-.18.86-.58,1.02l-3.66,1.5c-.84-3.77-2.82-7.37-7.33-9.36-.58-3.06-2.67-5.55-5.43-6.75,1.23-1.43,1.98-3.58,1.98-5.88,0-.45-.37-.82-.82-.82s-.82.37-.82.82c0,2.25-.82,4.29-2.1,5.32-.61-.13-1.23-.2-1.87-.2-.54,0-1.06.05-1.57.14-1.24-1.04-2.03-3.06-2.03-5.26,0-.45-.37-.82-.82-.82s-.82.37-.82.82c0,2.27.69,4.35,1.87,5.77-2.92,1.16-5.13,3.76-5.7,6.98-3.67,1.73-6.06,4.75-7.16,9.04l-3.17-1.3c-.41-.17-.65-.59-.58-1.02l2.06-13.99c.06-.39.34-.7.73-.79l3.43-.78c.44-.1.72-.54.62-.98-.1-.44-.54-.72-.98-.62l-3.43.78c-1.05.24-1.84,1.09-1.99,2.16l-2.06,13.99c-.18,1.19.48,2.33,1.59,2.78l3.45,1.41c-.23,1.35-.35,2.8-.36,4.37l-3.5-2.79c-2.01-1.6-4.53-2.48-7.09-2.48h-38.86v.82c0,18.66,15.47,34.43,33.79,34.43h14.39l-3.83.97c-.68.17-1.24.59-1.6,1.19-.36.6-.46,1.3-.28,1.97l2.93,11.4c.09.33-.01.68-.26.92l-1.32,1.29c-.33.32-.33.84-.02,1.16.16.17.37.25.59.25s.41-.08.57-.23l1.32-1.29c.67-.65.93-1.61.7-2.51l-2.93-11.4c-.06-.25-.03-.5.1-.72.13-.22.34-.38.59-.44l4.76-1.2c3.1,8.28,8.44,15.34,16.91,15.34s14.09-7.29,17.05-15.51l5.43,1.37c.25.06.46.22.59.44.13.22.17.48.1.72l-2.93,11.4c-.23.9.04,1.86.7,2.51l1.32,1.29c.16.16.37.23.57.23s.43-.08.59-.25c.32-.33.31-.85-.02-1.16l-1.32-1.29c-.24-.24-.34-.59-.26-.92l2.93-11.4c.17-.67.07-1.38-.28-1.97-.36-.6-.92-1.02-1.6-1.19l-3.83-.97h13.66c18.31,0,33.79-15.77,33.79-34.43v-.82h-38.86Zm-6.07,3.77c1.72-1.37,3.87-2.12,6.07-2.12h16.53c-2.68,6.94-9.2,11.64-16.45,11.64h-7.5c-.47-2.39-1.46-4.42-2.93-6.1l4.29-3.42Zm-21.57-19.52c3.3,0,6.18,2.15,7.19,5.17-1.98-.6-4.35-.94-7.19-.94s-5.14.34-7.21,1.01c1-3.07,3.88-5.25,7.21-5.25Zm0,5.88c13.46,0,15.3,7.7,15.31,15.25-3.45-2.58-8.59-3.9-15.31-3.9s-11.85,1.32-15.3,3.9c.02-10.4,4.88-15.25,15.3-15.25Zm-.02,20.29l-5.46-6.95c1.67-.23,3.5-.35,5.48-.35,1.84,0,3.54.1,5.11.3l-5.13,7Zm-21.45-6.65l4.24,3.38c-1.5,1.69-2.5,3.73-2.97,6.14h-7.42c-7.23,0-13.52-4.61-16.19-11.64h16.27c2.2,0,4.35.75,6.07,2.12Zm-43.28-2.12h19.18c2.77,8,9.82,13.29,17.95,13.29h7.18c-.06.59-.09,1.21-.09,1.84,0,3.44.45,7.98,1.5,12.65l-.09-.1s-.41-.46-.98-1.3c-.41-.59-1.2-1.81-1.95-3.29-.59-1.16-1.12-2.36-1.48-3.41-.33-.94-.51-1.57-.51-1.58l-.7-2.5-.86,2.45s-.23.64-.62,1.54c-.47,1.06-1.1,2.27-1.72,3.31-.83,1.37-1.73,2.55-2.19,3.14-.64.83-1.12,1.33-1.12,1.34l-.74.79-.33-.64s-.34-.65-.77-1.61c-.3-.66-.86-1.99-1.34-3.58-.38-1.24-.68-2.52-.85-3.62-.16-.98-.23-1.64-.23-1.64l-.25-2.59-1.28,2.26s-.34.59-.88,1.4c-.65.96-1.48,2.04-2.28,2.95-1.05,1.19-2.15,2.21-2.71,2.7-.78.7-1.33,1.11-1.34,1.12l-1.1.82,1.24.59s.67.32,1.65.66c1.02.4,2.39.8,3.76,1.09,1.45.33,2.95.48,3.9.58l3.14.13-.03-.05,12.98.34c.24.96.5,1.93.79,2.88h-14.69c-17.15,0-31.69-14.55-32.13-31.96Zm43.34,27.36l-7.5-.2s.06-.07.08-.11c.48-.61,1.42-1.86,2.3-3.3.58-.96,1.16-2.06,1.63-3.07.37,1,.86,2.11,1.4,3.16.78,1.56,1.63,2.85,2.06,3.47.01.02.02.03.03.05Zm-12.98-.33h-.3c-.86-.1-2.3-.24-3.65-.55-1.29-.28-2.58-.65-3.54-1.03-.1-.03-.19-.07-.28-.1.11-.1.23-.2.35-.31.59-.52,1.74-1.58,2.85-2.85.74-.84,1.5-1.82,2.14-2.73.19,1.05.48,2.23.82,3.36.5,1.67,1.1,3.09,1.41,3.78.07.15.13.3.2.44Zm15.51-11.9c0-7.08,3.88-11.43,11.56-12.99l6.49,8.25-2.89,37.69c-11.25-3.63-15.15-23.43-15.15-32.95Zm16.77,33.35l2.19-28.56,2.19,28.54c-.73.13-1.48.2-2.26.2-.73,0-1.43-.06-2.11-.18Zm5.99-.43l-2.9-37.87,5.96-8.12c7.93,1.5,11.94,5.87,11.94,13.07,0,9.88-3.76,29.26-15,32.92Zm28.82-16.09h-14.73c.28-.96.54-1.92.77-2.88l13.04-.35-.03.05,3.18-.13c.9-.09,2.4-.24,3.84-.57,1.38-.3,2.75-.7,3.74-1.09,1.01-.36,1.65-.66,1.68-.67l1.24-.59-1.1-.82s-.56-.42-1.34-1.12c-.56-.5-1.65-1.51-2.7-2.7-.8-.91-1.63-1.99-2.28-2.95-.55-.82-.88-1.4-.88-1.4l-1.28-2.26-.25,2.59s-.06.66-.23,1.65c-.17,1.09-.47,2.37-.85,3.62-.34,1.15-.83,2.46-1.34,3.58-.43.95-.76,1.6-.76,1.6l-.33.64-.74-.79s-.48-.51-1.12-1.34c-.46-.59-1.36-1.77-2.18-3.13-.62-1.04-1.25-2.24-1.72-3.31-.4-.9-.62-1.53-.62-1.54l-.86-2.45-.71,2.5s-.18.64-.52,1.58c-.36,1.05-.89,2.25-1.48,3.41-.74,1.47-1.53,2.69-1.95,3.28-.57.83-.97,1.29-.98,1.3l-.18.2c1.11-5.05,1.51-9.79,1.51-12.75,0-.63-.03-1.24-.09-1.84h7.27c8.14,0,15.44-5.4,18.21-13.29h18.92c-.44,17.41-14.98,31.96-32.13,31.96Zm-11.2-4.6s.02-.03.03-.04c.43-.63,1.28-1.92,2.06-3.47.54-1.06,1.03-2.17,1.41-3.17.34.73.89,1.84,1.63,3.07.87,1.44,1.81,2.69,2.3,3.3.03.04.06.07.09.11l-7.5.2Zm12.98-.33c.06-.14.13-.28.2-.43.31-.69.92-2.11,1.41-3.78.35-1.14.64-2.32.82-3.36.64.91,1.41,1.89,2.15,2.74,1.11,1.26,2.26,2.32,2.84,2.84.12.11.24.22.36.31-.1.04-.2.07-.31.11-.94.37-2.22.74-3.52,1.02-1.35.31-2.79.45-3.6.54h-.34Zm-78.35-13.94l1.08-2.37-2.25,1.32s-.59.35-1.46.76c-1.09.53-2.35,1.04-3.45,1.41-1.14.38-2.49.74-3.7.99-1.01.2-1.72.3-1.73.3l-1.3.17.72,1.1s.42.63,1.11,1.42c.7.87,1.68,1.9,2.69,2.82,1.08,1,2.24,1.86,3.07,2.45l2.65,1.7.07-1.42s.04-.74.15-1.78c.12-1.21.36-2.58.65-3.77.28-1.21.68-2.5,1.09-3.56.35-.93.62-1.53.63-1.53Zm-3.31,4.71c-.3,1.25-.55,2.7-.69,3.98-.02.17-.03.33-.05.48l-.25-.16c-.75-.54-1.86-1.36-2.88-2.3-.95-.87-1.87-1.84-2.54-2.67-.07-.08-.13-.15-.19-.22.15-.03.3-.06.46-.09,1.27-.26,2.69-.64,3.89-1.04,1.32-.44,2.49-.95,3.23-1.29-.38,1.03-.72,2.2-.98,3.32Zm-5.85-8.79l.06-.06c.47-.46.92-.9,1.35-1.23l1.42-1.04c.82-.58,1.38-.94,1.39-.95l2.01-1.29-2.37-.23s-2.71-.26-5.36-.93c-1.21-.29-2.55-.7-3.66-1.11-.97-.35-1.62-.64-1.63-.65l-1.25-.56.09,1.37s.05.73.19,1.73c.09.68.3,2.05.69,3.62l.25.97.16.57c.07.24.15.5.22.67l.68,1.71c.43.95.75,1.57.76,1.6l.64,1.22.77-1.14s1.63-2.38,3.59-4.28Zm-4.25,1.95l-.68-1.7c-.05-.13-.11-.33-.18-.56l-.38-1.43c-.36-1.48-.56-2.79-.65-3.44-.01-.1-.03-.19-.04-.29.14.05.29.11.45.17,1.17.43,2.57.85,3.83,1.16,1.24.31,2.46.54,3.45.69l-1.13.82c-.53.41-1.03.9-1.52,1.37l-.06.06c-1.22,1.18-2.29,2.49-2.98,3.4-.04-.09-.08-.17-.12-.27Zm57.43-41.75c6.14,0,11.14-5,11.14-11.14s-5-11.14-11.14-11.14-11.14,5-11.14,11.14,5,11.14,11.14,11.14Zm0-20.64c5.24,0,9.5,4.26,9.5,9.5s-4.26,9.5-9.5,9.5-9.5-4.26-9.5-9.5,4.26-9.5,9.5-9.5Zm0,19.15c-5.32,0-9.65-4.33-9.65-9.65s4.33-9.65,9.65-9.65,9.65,4.33,9.65,9.65-4.33,9.65-9.65,9.65Zm0-18.99c-5.15,0-9.34,4.19-9.34,9.34s4.19,9.34,9.34,9.34,9.34-4.19,9.34-9.34-4.19-9.34-9.34-9.34Z"/>
  <g>
    <path class="cls-1" d="m483.12,171.93c-.18.23-.26.52-.23.82.04.29.18.56.42.74.48.38,1.18.29,1.56-.19l6.9-8.8,7.38,8.37-8.1.06c-.3,0-.57.12-.78.33-.21.21-.32.49-.32.79,0,.3.12.57.33.78.21.21.52.32.79.32l7.72-.06,1.22,1.49v-6.09l-8.34-9.46-8.54,10.9Z"/>
    <path class="cls-1" d="m488.09,196.51l-2.64,3.12-10.68-12.67,9.38-10.26c.2-.22.3-.5.29-.8-.01-.3-.14-.57-.36-.77-.22-.2-.51-.3-.8-.29-.3.01-.57.14-.77.36l-9.18,10.05-7.34-8.71-32.61,38.72h66.62v-4.66l-11.91-14.09Zm-41.14,16.53l1.92-2.27h3.79c.61,0,1.11-.5,1.11-1.11s-.5-1.11-1.11-1.11h-1.92l2.69-3.19h2.62l6.49,7.67h-15.58Zm18.49,0l-8.36-9.89h-4.68l-8.35,9.89h-5.9l27.85-33.06,18,21.37-9.88,11.69h-8.68Zm11.59,0l2.3-2.73h5.21c.61,0,1.11-.5,1.11-1.11s-.5-1.11-1.11-1.11h-3.33l1.52-1.8h2.64c.61,0,1.11-.5,1.11-1.11s-.5-1.11-1.11-1.11h-.76l3.49-4.13,11.07,13.1h-22.14Z"/>
  </g>
  <path class="cls-1" d="m19.72,179.09l-7.37,8.96-2.58-3.05-8.14-9.93h.66c.68,0,1.04-.81.59-1.32l-2.87-3.26v6.09l8.07,9.84,7.51,8.87-14.26,16.87-1.32-1.56v4.66h50.23l-30.5-36.17ZM3.48,213.04l13.55-16.03,13.57,16.03H3.48Zm10.33-23.27l5.94-7.21,25.71,30.49h-11.95l-19.7-23.27Z"/>
  <g>
    <path class="cls-1" d="m54.55,283.77c.58,0,1.04-.47,1.04-1.04,0-1.28.18-2.54.54-3.75,1.47-4.97,5.73-8.62,10.86-9.32.28-.04.52-.18.69-.4.17-.22.24-.5.2-.77-.08-.57-.6-.97-1.17-.89-5.94.81-10.88,5.04-12.58,10.79-.42,1.41-.63,2.87-.63,4.35,0,.58.47,1.04,1.04,1.04Z"/>
    <path class="cls-1" d="m60.12,282.73c0,4.78,3.89,8.66,8.66,8.66s8.66-3.89,8.66-8.66-3.89-8.66-8.66-8.66-8.66,3.89-8.66,8.66Zm2.09,0c0-3.63,2.95-6.57,6.57-6.57s6.57,2.95,6.57,6.57-2.95,6.57-6.57,6.57-6.57-2.95-6.57-6.57Z"/>
    <path class="cls-1" d="m76.22,293.62c-2.2,1.5-4.77,2.3-7.44,2.3-4.08,0-7.87-1.85-10.39-5.07-.17-.22-.42-.36-.69-.39-.28-.03-.55.04-.77.21-.45.36-.53,1.01-.18,1.46,2.92,3.73,7.31,5.87,12.04,5.87,3.09,0,6.07-.92,8.62-2.66.47-.33.6-.98.27-1.45h0c-.32-.47-.97-.6-1.45-.27Z"/>
    <path class="cls-1" d="m70.59,269.66c4.76.65,8.79,3.84,10.51,8.34.15.4.55.67.97.67.13,0,.25-.02.37-.07.54-.21.81-.81.6-1.35-2-5.2-6.67-8.9-12.18-9.65-.28-.04-.55.03-.77.2-.22.17-.37.41-.4.69-.04.28.03.55.2.77.17.22.41.37.69.4Z"/>
    <path class="cls-1" d="m81.97,282.73c0,2.98-.97,5.78-2.8,8.12-.35.45-.27,1.11.18,1.46.18.14.41.22.64.22.32,0,.62-.15.82-.4,2.12-2.71,3.24-5.96,3.24-9.41,0-.58-.47-1.04-1.04-1.04s-1.04.47-1.04,1.04Z"/>
    <path class="cls-1" d="m84.67,323.13c-.58,0-1.04.47-1.04,1.04s.47,1.04,1.04,1.04h7.04c.58,0,1.04-.47,1.04-1.04s-.47-1.04-1.04-1.04h-7.04Z"/>
    <path class="cls-1" d="m88.98,328.18c0,.58.47,1.04,1.04,1.04h7.04c.58,0,1.04-.47,1.04-1.04s-.47-1.04-1.04-1.04h-7.04c-.58,0-1.04.47-1.04,1.04Z"/>
    <path class="cls-1" d="m147.29,351.4h-4.81l-47.35-60.01-24.1,30.74-8.53-14.41c-.19-.31-.5-.52-.85-.58l-8.53-1.39c-.11-.02-.22-.02-.33,0l-8.37,1.38c-.37.06-.69.28-.9.61l-9.3,15.71c-.17.29-.19.65-.05.96l4.44,9.75-.96.55c-1.07.61-1.86,1.59-2.22,2.76l-4.71,13.94h-11.06c-.58,0-1.04.47-1.04,1.04s.47,1.04,1.04,1.04h10.36l-1.86,5.53c-.31.92.05,1.93.89,2.44.32.21.73.32,1.17.32h3l-.29,1.38c-.18.87.19,1.74.95,2.22.31.2.71.3,1.14.3h11.48c.63,0,1.23-.28,1.63-.78.4-.5.56-1.14.42-1.75l-.29-1.37h10.05l-.29,1.37c-.15.72.08,1.45.63,1.97.39.36.92.56,1.5.56h11.36c.58,0,1.12-.2,1.5-.56.54-.52.78-1.25.63-1.97l-.29-1.37h2.4c.44,0,.84-.11,1.17-.32.81-.52,1.17-1.53.87-2.44l-1.87-5.53h71.38c.58,0,1.04-.47,1.04-1.04s-.47-1.04-1.04-1.04Zm-105.16-27.43c0-.58-.47-1.04-1.04-1.04h-4.14s6.54-11.05,6.54-11.05v6.11c0,1.25.24,2.47.7,3.64l2.21,5.52-1.91,3.66-4.06,2.31-3.68-8.09h4.35c.57,0,1.04-.48,1.04-1.05Zm26.78,37c-.58,0-1.04.47-1.04,1.04v1.57h-1.12v-1.57c0-.58-.47-1.04-1.04-1.04s-1.04.47-1.04,1.04v1.57h-1.12v-1.57c0-.58-.47-1.04-1.04-1.04s-1.04.47-1.04,1.04v1.57h-1.4s.62-2.96.62-2.96c.19-.91,1.01-1.57,1.94-1.57h6.42c.93,0,1.74.66,1.94,1.57l.62,2.95s0,0,0,0h-1.63s0-1.57,0-1.57c0-.58-.47-1.04-1.04-1.04Zm-25.02,0c-.58,0-1.04.47-1.04,1.04v1.57h-1.12v-1.57c0-.58-.47-1.04-1.04-1.04s-1.04.47-1.04,1.04v1.57h-1.12v-1.57c0-.58-.47-1.04-1.04-1.04s-1.04.47-1.04,1.04v1.57h-1.47s.62-2.96.62-2.96c.19-.91,1-1.57,1.93-1.57h6.43c.93,0,1.74.66,1.93,1.57l.62,2.94s0,.02,0,.02h-1.56s0-1.57,0-1.57c0-.58-.47-1.04-1.04-1.04Zm25.15-4h-6.42c-1.73,0-3.27,1.1-3.83,2.72h-2.12l-1.29-12.51h-5.53l-1.28,12.51h-.79c-.57-1.61-2.1-2.72-3.83-2.72h-6.43c-1.72,0-3.26,1.1-3.83,2.72h-3.55s2.09-6.2,2.09-6.2h12.78c.58,0,1.04-.47,1.04-1.04s-.47-1.04-1.04-1.04h-12.08l1.06-3.15h8.62c.58,0,1.04-.47,1.04-1.04s-.47-1.04-1.04-1.04h-7.92l2.72-8.06c.21-.68.66-1.24,1.27-1.59l7.37-4.2,2.04-3.9h9.61l2.17,3.91,7.37,4.19c.62.35,1.06.91,1.27,1.61l2.72,8.04h-8.08c-.58,0-1.04.47-1.04,1.04s.47,1.04,1.04,1.04h8.79l1.06,3.15h-12.37c-.58,0-1.04.47-1.04,1.04s.47,1.04,1.04,1.04h13.07l2.1,6.2h-2.93c-.57-1.61-2.1-2.71-3.83-2.71Zm24.01-47.82c-.58,0-1.04.47-1.04,1.04s.47,1.04,1.04,1.04h15.08l19.94,25.28h-10.44c-.58,0-1.04.47-1.04,1.04s.47,1.04,1.04,1.04h12.09l10.1,12.8h-64.62l-4.71-13.91c-.36-1.19-1.15-2.18-2.23-2.79l-.71-.4,4.26-9.79,23.32-29.75,11.36,14.39h-13.43Zm-27.75,13.79c-.57,0-1.04.47-1.04,1.04s.47,1.04,1.04,1.04h4.02s-3.58,8.24-3.58,8.24l-4.33-2.46-1.89-3.4,2.16-5.92c.39-1.08.58-2.21.58-3.35v-6.72l6.82,11.52h-3.79Zm-5.12-4.8c0,.91-.16,1.8-.46,2.63l-2.02,5.56h-9.37l-2.19-5.48c-.37-.91-.55-1.87-.55-2.86v-8.94l3.84-.63,1.74,7.22h3.86l1.47-7.23,3.69.6v9.13Zm-8.44,31.13h1.76l1.07,10.42h-3.9l1.07-10.42Zm1.57-35.72h-.51l-1.31-5.47,1.49-.24,1.45.23-1.11,5.48Z"/>
    <path class="cls-1" d="m113,342.85h7.04c.58,0,1.04-.47,1.04-1.04s-.47-1.04-1.04-1.04h-7.04c-.58,0-1.04.47-1.04,1.04s.47,1.04,1.04,1.04Z"/>
  </g>
  <g>
    <path class="cls-1" d="m100.96,438.32c-1.19-.61-2.28-1.5-3.54-2.53-3.51-2.86-7.87-6.43-18.07-7.25-10.99-.89-20.05,3.63-26.04,6.61-2.54,1.27-4.74,2.36-5.84,2.37,0,0-.02,0-.02,0h-26.1c-.67,0-1.21.54-1.21,1.21s.54,1.21,1.21,1.21h25.83c2.01.97,13.84,6.41,28.18,6.82-5.01,8.91-17.75,17.51-36.02,17.51-7.81,0-15.91-2.06-16.41-6.67-.1-.96.18-1.73.83-2.23.71-.55,1.8-.7,2.64-.37.49.19.88.58,1.02,1.01.15.46.03.99-.36,1.57-.37.56-.22,1.3.34,1.67.55.37,1.3.22,1.67-.34,1-1.52.91-2.81.65-3.63-.36-1.13-1.27-2.07-2.44-2.53-1.64-.64-3.59-.36-4.98.7-1.33,1.02-1.96,2.59-1.76,4.4.71,6.5,10.18,8.82,18.81,8.82,20.02,0,33.83-9.96,38.74-19.91.94-.02,1.9-.06,2.85-.12v10.69c0,.67.54,1.21,1.21,1.21s1.21-.54,1.21-1.21v-10.9c5.85-.66,11.88-2.35,17.66-5.61.45-.26.73-.74.72-1.26-.01-.53-.31-1-.77-1.24Zm-22.67-7.15c2.66,0,4.82,2.16,4.82,4.82s-2.16,4.82-4.82,4.82-4.82-2.16-4.82-4.82,2.16-4.82,4.82-4.82Zm-27.31,7.78c1-.44,2.13-1,3.41-1.64,4.57-2.28,11.01-5.48,18.64-6.28-1.22,1.3-1.97,3.03-1.97,4.95,0,3.99,3.24,7.23,7.23,7.23s7.23-3.24,7.23-7.23c0-1.63-.55-3.12-1.46-4.33,6.07,1.31,9.21,3.87,11.83,6.01.81.67,1.6,1.31,2.42,1.88-18.39,9.39-39.64,2.51-47.34-.59Z"/>
    <path class="cls-1" d="m21.35,429.6h.01c.74,0,18.26-.22,26.18-2.43,1.32-.37,3.09-1.07,5.14-1.88,5.61-2.22,14.08-5.58,22.39-5.58,15.64,0,24.59,7.1,24.69,7.18.52.42,1.28.34,1.7-.17.42-.52.34-1.28-.17-1.7-.39-.32-9.66-7.72-26.21-7.72-8.78,0-17.51,3.46-23.28,5.75-1.98.79-3.7,1.47-4.89,1.8-7.62,2.12-25.38,2.34-25.56,2.34-.67,0-1.2.55-1.19,1.22,0,.66.55,1.19,1.21,1.19Z"/>
  </g>
  <g>
    <path class="cls-1" d="m182.4,254.56l1.16.89h0c1.54,1.19,2.92,2.57,4.11,4.11l.89,1.16,6.58-12.72-12.63,6.5-.11.06Zm8.41-2.24l-2.58,4.99c-.75-.86-1.56-1.67-2.42-2.42l5-2.57Z"/>
    <path class="cls-1" d="m169.68,257.92c-8.56,0-15.52,6.96-15.52,15.52s6.96,15.52,15.52,15.52,15.52-6.96,15.52-15.52-6.96-15.52-15.52-15.52Zm13.8,15.52c0,7.61-6.19,13.8-13.8,13.8s-13.8-6.19-13.8-13.8,6.19-13.8,13.8-13.8,13.8,6.19,13.8,13.8Z"/>
    <path class="cls-1" d="m147.32,269.1l-13.92,4.34,13.81,4.3.12.04-.18-1.44c-.12-.96-.19-1.93-.19-2.9s.06-1.94.19-2.9l.18-1.44Zm-2.17,6.05l-5.5-1.71,5.5-1.71c-.04.57-.06,1.15-.06,1.71s.02,1.14.06,1.71Z"/>
    <path class="cls-1" d="m187.67,287.32c-1.19,1.54-2.57,2.93-4.11,4.11l-1.15.89,12.71,6.62-6.56-12.78-.89,1.16Zm-1.86,4.67c.86-.75,1.67-1.56,2.42-2.42l2.57,5.02-4.99-2.6Z"/>
    <path class="cls-1" d="m190.67,282.13l8.4,14.95.06.1.86-1.14c3.76-5.03,6.22-10.96,7.12-17.15l.21-1.41-16.64,4.66Zm14.35-2.09c-.91,4.87-2.88,9.61-5.69,13.71l-5.88-10.47,11.57-3.24Z"/>
    <path class="cls-1" d="m146.04,302.83l-.1.06,1.14.86c5.02,3.76,10.96,6.23,17.15,7.12l1.41.21-4.66-16.64-14.95,8.4Zm13.79-5.62l3.24,11.58c-4.88-.91-9.61-2.88-13.71-5.69l10.47-5.89Z"/>
    <path class="cls-1" d="m190.67,264.75l16.64,4.66-.21-1.41c-.9-6.19-3.36-12.12-7.12-17.15l-.86-1.14-8.41,14.96-.05.09Zm2.78-1.15l5.88-10.47c2.81,4.1,4.78,8.84,5.69,13.71l-11.57-3.24Z"/>
    <path class="cls-1" d="m156.95,292.31l-1.14-.88c-1.54-1.19-2.93-2.58-4.12-4.12l-.88-1.14-6.76,12.79-.12.22,12.91-6.82.11-.06Zm-8.56,2.42l2.73-5.18c.76.87,1.58,1.69,2.44,2.44l-5.18,2.74Z"/>
    <path class="cls-1" d="m148.68,282.13l-16.64-4.66.21,1.41c.9,6.19,3.36,12.12,7.12,17.15l.86,1.14,8.4-14.96.05-.09Zm-2.78,1.15l-5.88,10.47c-2.82-4.1-4.78-8.84-5.69-13.71l11.57,3.24Z"/>
    <path class="cls-1" d="m192.03,277.78l13.64-4.35-13.64-4.35.19,1.45c.12.96.19,1.93.19,2.9s-.06,1.94-.19,2.9l-.19,1.45Zm2.17-6.05l5.34,1.7-5.34,1.7c.04-.57.06-1.14.06-1.7s-.02-1.14-.06-1.7Z"/>
    <path class="cls-1" d="m174.01,295.8l-1.44.18c-1.93.25-3.88.25-5.8,0l-1.44-.18,4.33,13.9,4.3-13.78.04-.12Zm-2.62,2.17l-1.71,5.48-1.71-5.48c1.14.08,2.29.08,3.42,0Z"/>
    <path class="cls-1" d="m160.99,252.45l4.66-16.64-1.41.21c-6.2.9-12.13,3.36-17.15,7.12l-1.14.86,14.96,8.41.09.05Zm-11.62-8.66c4.1-2.81,8.83-4.78,13.71-5.69l-3.24,11.57-10.47-5.88Z"/>
    <path class="cls-1" d="m140.29,249.81l-.06-.1-.86,1.14c-3.76,5.03-6.23,10.96-7.12,17.15l-.21,1.41,16.64-4.66-8.4-14.95Zm-5.96,17.03c.91-4.87,2.88-9.61,5.69-13.71l5.88,10.47-11.57,3.24Z"/>
    <path class="cls-1" d="m150.81,260.7l.88-1.14c1.19-1.54,2.57-2.92,4.11-4.11l1.15-.89-12.81-6.72-.22-.12,6.84,12.87.06.11Zm2.75-5.82c-.86.75-1.68,1.57-2.44,2.44l-2.74-5.15,5.17,2.71Z"/>
    <path class="cls-1" d="m169.68,253.43c-11.03,0-20.01,8.98-20.01,20.01s8.98,20.01,20.01,20.01,20.01-8.98,20.01-20.01-8.98-20.01-20.01-20.01Zm18.15,20.01c0,10.01-8.14,18.15-18.15,18.15s-18.15-8.14-18.15-18.15,8.14-18.15,18.15-18.15,18.15,8.14,18.15,18.15Z"/>
    <path class="cls-1" d="m166.78,250.9c1.92-.25,3.87-.25,5.8,0l1.45.19-4.35-13.56-4.35,13.56,1.45-.19Zm1.2-1.99l1.7-5.3,1.7,5.3c-1.13-.08-2.27-.08-3.4,0Z"/>
    <path class="cls-1" d="m178.36,294.43l-4.66,16.64,1.41-.21c6.2-.9,12.13-3.36,17.15-7.12l1.14-.86-14.96-8.41-.09-.05Zm11.62,8.67c-4.1,2.82-8.83,4.78-13.71,5.69l3.24-11.58,10.47,5.88Z"/>
    <path class="cls-1" d="m193.31,244.05l.1-.06-1.14-.86c-5.03-3.76-10.96-6.22-17.15-7.12l-1.41-.21,4.65,16.64,14.95-8.4Zm-13.79,5.62l-3.24-11.57c4.87.91,9.6,2.88,13.71,5.69l-10.47,5.88Z"/>
  </g>
  <path class="cls-1" d="m472.82,38c2.69-5.71,3.92-10.91,3.92-13.32,0-5.67-4.77-10.28-10.64-10.28s-10.64,4.61-10.64,10.28c0,2.43,1.22,7.65,3.9,13.35,2.45,5.22,4.88,8.09,6.22,8.95l.51.33.51-.34c1.33-.88,3.76-3.76,6.22-8.98Zm2.05-13.32c0,2.21-1.17,7.07-3.74,12.52-2.32,4.92-4.24,7.05-5.05,7.8-1.21-1.12-3.13-3.71-5.04-7.77-2.56-5.45-3.72-10.33-3.72-12.56,0-4.64,3.94-8.42,8.78-8.42s8.77,3.78,8.77,8.42Zm16.81,20.39l-18.25,2.27c4.53-6.59,8.61-17.87,8.61-23.89,0-8.79-7.15-15.95-15.95-15.95s-15.95,7.15-15.95,15.95c0,5.53,3.66,16.84,8.58,23.93l-19.16-2.3v11.29l23.26-2.2-2.96,45.77h12.43s-2.96-45.73-2.96-45.73l22.33,2.16v-11.29Zm-29.81,53l2.96-45.78v-.18s-23.39,2.21-23.39,2.21v-7.13l21.49,2.58-1.65-2.07c-4.99-6.27-9.27-18.57-9.27-24.24,0-7.77,6.32-14.09,14.08-14.09s14.08,6.32,14.08,14.09c0,5.62-4.29,17.89-9.29,24.21l-1.65,2.08,20.58-2.55v7.13l-22.46-2.17,2.97,45.94h-8.46Z"/>
</svg>